<?xml version="1.0" encoding="utf-8"?>
<!-- Generator: Adobe Illustrator 23.0.3, SVG Export Plug-In . SVG Version: 6.00 Build 0)  -->
<svg version="1.1" id="Capa_1" xmlns="http://www.w3.org/2000/svg" xmlns:xlink="http://www.w3.org/1999/xlink" x="0px" y="0px"
	 viewBox="0 0 1200 1200" enable-background="new 0 0 1200 1200" xml:space="preserve">
<g>
	<g>
		<g>
			<path d="M826.896,171.277c0,0,42.553-8.511,51.064,38.298c8.511,46.809,0,242.553,0,242.553l-12.766-242.553
				C865.193,209.574,865.193,184.043,826.896,171.277z M337.061,566.416l-12.766-242.553c0,0-8.511,195.745,0,242.553
				c8.511,46.808,51.064,38.298,51.064,38.298C337.061,591.948,337.061,566.416,337.061,566.416z M928.424,117.016v825.815
				c0,114.416-92.753,207.169-207.17,207.169H338.592c-37.012,0-67.016-30.004-67.016-67.016V117.016
				C271.576,80.004,301.58,50,338.592,50h522.816C898.42,50,928.424,80.004,928.424,117.016z M357.718,614.044h412.479
				c66.566,0,120.528-53.962,120.528-120.529V209.451c0-26.423-21.42-47.843-47.844-47.843H357.718
				c-26.423,0-47.844,21.42-47.844,47.843V566.2C309.874,592.623,331.295,614.044,357.718,614.044z M833.208,1018.746
				c4.98,4.479,12.648,4.074,17.128-0.906c4.479-4.98,4.074-12.648-0.906-17.127l-38.924-35.014
				c-4.98-4.479-12.648-4.074-17.128,0.906c-4.479,4.98-4.074,12.648,0.906,17.127L833.208,1018.746z M826.77,1022.238
				l-38.127-35.881c-4.878-4.59-12.554-4.357-17.144,0.52c-4.59,4.878-4.357,12.554,0.521,17.144l38.127,35.88
				c4.878,4.59,12.554,4.357,17.144-0.521C831.882,1034.504,831.648,1026.828,826.77,1022.238z M882.882,764.649
				c0-24.184-19.606-43.789-43.79-43.789c-24.184,0-43.79,19.605-43.79,43.789s19.606,43.79,43.79,43.79
				C863.277,808.439,882.882,788.834,882.882,764.649z M447.003,885.509c16.445,0,29.777-13.332,29.777-29.777v-35.536h33.033
				c16.445,0,29.777-13.332,29.777-29.777c0-16.445-13.332-29.777-29.777-29.777H476.78V729.36
				c0-16.446-13.332-29.777-29.777-29.777c-16.445,0-29.777,13.331-29.777,29.777v31.281h-33.785
				c-16.445,0-29.777,13.332-29.777,29.777c0,16.445,13.332,29.777,29.777,29.777h33.785v35.536
				C417.226,872.178,430.558,885.509,447.003,885.509z M560.352,941.315c-3.288-8.062-12.488-11.932-20.55-8.644l-63.016,25.699
				c-8.062,3.288-11.932,12.489-8.644,20.55h0c3.288,8.062,12.488,11.932,20.55,8.644l63.016-25.698
				C559.77,958.577,563.64,949.377,560.352,941.315z M677.709,941.315c-3.288-8.062-12.488-11.932-20.55-8.644l-63.016,25.699
				c-8.062,3.288-11.932,12.489-8.644,20.55c3.288,8.062,12.488,11.932,20.55,8.644l63.016-25.698
				C677.126,958.577,680.997,949.377,677.709,941.315z M735.625,872.878c24.185,0,43.79-19.606,43.79-43.79
				c0-24.184-19.606-43.79-43.79-43.79c-24.184,0-43.79,19.606-43.79,43.79C691.835,853.272,711.44,872.878,735.625,872.878z
				 M749.559,1024.928l38.127,35.88c4.878,4.59,12.554,4.357,17.144-0.521c4.59-4.878,4.357-12.553-0.521-17.143l-38.127-35.881
				c-4.878-4.59-12.554-4.357-17.144,0.521C744.448,1012.663,744.681,1020.338,749.559,1024.928z M916.257,613.83l-12.766,344.681
				c-17.021,97.872-136.17,174.468-136.17,174.468c127.66-46.809,148.936-165.957,148.936-165.957V613.83z M784.052,214.024H380.087
				V556.11h7.732L784.052,214.024z M648.172,464.894l119.149-165.957L391.766,556.11h435.129V290.142L648.172,464.894z"/>
		</g>
	</g>
</g>
</svg>
